<svg xmlns="http://www.w3.org/2000/svg" fill="none" viewBox="0 0 64 64" aria-hidden="true"><path fill="#9C1E3D" d="M32 62.72c16.966 0 30.72-13.754 30.72-30.72S48.966 1.28 32 1.28 1.28 15.034 1.28 32 15.034 62.72 32 62.72z"/><path fill="#FFCE00" d="M32.445 57.606V6.4H48.97A30.562 30.562 0 0032 1.28 30.58 30.58 0 0015.03 6.4h12.292v51.194H15.027A30.552 30.552 0 0032 62.72a30.566 30.566 0 0016.957-5.114H32.445z"/><path fill="#FF7300" d="M27.318 6.4H15.03a30.917 30.917 0 00-7.33 6.854v37.488a30.856 30.856 0 007.33 6.855h12.292L27.318 6.4z"/><path fill="#007229" d="M1.28 32c0 7.066 2.41 13.555 6.42 18.746V13.254C3.69 18.444 1.28 24.934 1.28 32z"/><path fill="#FFCE00" d="M57.114 46.403c-1.136 0-1.136 1.133-1.421 1.984.976.157 1.337-.441 2.105-1.155.11.224-.534.8-.582 1.165.314.025.566-.023.79-.096.5-.79.941-1.616 1.364-2.451-.573.816-1.412.272-2.256.553z"/><path fill="#FFCE00" d="M59.386 45.837c.083-.106.128-.234.188-.355-.064.128-.144.246-.208.374.007-.01.013-.01.02-.02zM62.72 32c0-1.446-.134-2.86-.33-4.256l-.995-1.267a.178.178 0 01.032-.25.182.182 0 01.253.032l.118.15.487.618c-.032-.185-.051-.371-.087-.557a31.827 31.827 0 00-.278-1.356c-.307-.234-.72-.576-1.354-1.156a.184.184 0 01-.012-.252.184.184 0 01.252-.013c.045.041.096.083.141.121.279.253.56.5.823.717-.061-.246-.122-.493-.192-.736-.11-.393-.205-.793-.33-1.18-.47-.27-.886-.621-1.238-.919a6.082 6.082 0 00-.522-.422.18.18 0 01-.042-.25c.055-.08.173-.102.247-.042.054.039.121.103.185.15.119.097.234.186.365.295.234.199.509.423.8.627a24.008 24.008 0 00-.336-.912 28.839 28.839 0 00-.797-1.92c-.563-.268-1.19-.06-1.82.416 1.2.138 1.574.932 1.574.932-1.29.115-4.544 1.136-4.544 1.136s1.075-1.002-.192-1.162c-2.128-.122-1.02 1.978.477 2.86l.851-.566c.57 1.133.854 1.421 1.99 1.703v-1.123c.51.64 1.012 1.046 1.444 1.484.796.525 1.081 1.15 1.212 2.02a.177.177 0 01-.16.26l-.003-.001h-.006a.162.162 0 01-.106-.035c-.38-.279-.873-.423-1.456-.423-.576 0-1.088.138-1.309.199-.096.028-.128.032-.147.035a.176.176 0 01-.118-.045.208.208 0 01-.061-.147l.016-.157c.013-.112.045-.416.022-.547a5.906 5.906 0 01-1.564.233c-.47 0-1.005-.086-1.479-.355a5.28 5.28 0 01-.611-.201c.067.144.432 1.056.5 1.766.07.71-.334.806-.855 1.395.883.589 2.406-1.225 2.406-1.225s-.112 1.238-.361 2.032c.928-.343.93-2.032.93-2.032h.57s-.576 1.328.599 1.894c-.202-1.83.822-1.894.822-1.894l-.307 1.42c.576.048.87-.524 1.171-1.052 1.008.265.32.892.602 1.747-.125.048-.218.099-.336.147-.138.058-.275.115-.4.176-.931.432-1.527.854-2.439 1.54-2.016 1.343-2.77 3.391-2.035 5.452.195.426.413.838.695 1.18.393.391.921.977 1.324 1.575.63.5 1.316.925 2.01 1.447l-.285-5.108c.365 1.732.362 2 .362 3.418.246 1.482 1.29 4.02.81 5.587C61.618 41.193 62.72 36.73 62.72 32zm-2.896-8.682a.451.451 0 01-.202.045c-.29 0-.528-.262-.656-.717-.121-.435-.118-.988.18-1.17a.277.277 0 01.153-.042c.346 0 .781.598.883 1.068.07.384-.054.679-.358.816zm1.018 5.27a.177.177 0 01.147-.162c.086-.004.163.032.192.105.08.183.179.355.269.535.214.416.444.803.65 1.017a6.794 6.794 0 01-.142-1.737c.01-.173.023-.298.023-.314.016-.1.128-.176.198-.15.1.012.167.105.154.198-.003.01-.144 1.043.201 2.314a.165.165 0 01-.035.156.162.162 0 01-.131.068h-.01c-.412-.02-.841-.66-1.145-1.213a4.655 4.655 0 01-.064-.112l-.016.224-.02.288c-.006.096-.076.182-.191.166a.178.178 0 01-.167-.192l.087-1.19z"/><path fill="#FFCE00" d="M59.29 21.789c-.039.035-.1.358.016.761.073.266.204.458.316.458.02 0 .039-.003.061-.016.083-.038.192-.115.157-.358-.064-.404-.432-.826-.55-.845zM59.18 26.362c.5 0 .942.096 1.32.278-.151-.704-.44-1.178-1.22-1.603a.983.983 0 00-.691.125.193.193 0 01-.103.032h-.102c-1.078 0-3.386-.045-4.426-.416.205.476.71 1.155 2.068 1.155.438 0 .937-.074 1.484-.218.045-.038.244-.038.333.061.128.14.122.416.087.758.272-.07.732-.172 1.25-.172zM57.088 41.158c0-.796-1.267-2.144-1.811-2.688-.5-.595-.807-1.344-1.101-2.07-.528-1.29-.982-2.406-2.298-2.406-.121 0-.25.01-.384.028a.852.852 0 01-.284.394c.108.22.188.46.096.66a.475.475 0 01-.218.223c.131.157.243.346.202.541-.03.134-.119.243-.279.333.02.025.039.045.055.064.144.17.268.313.23.496-.026.128-.122.24-.32.355.397.448.682 1.05.842 1.805.006.032.01.051.016.064a.12.12 0 010 .067c-.039.186-.125.288-.285.48-.106.131-.25.31-.448.582.24.224.838.51 1.187.51.07 0 .125-.014.154-.04.16-.092.23-.498.24-.748a.14.14 0 01.102-.134c.013-.004.029-.004.038-.004.048 0 .09.023.116.064.956 1.424 1.81 2.215 2.624 2.416.819.279 1.526-.265 1.526-.992zM50.131 32.445c-.211-2.563-.195-14.083.503-17.024-1.741 1.971-2.541 11.635-2.858 15.446a43.774 43.774 0 01-.154 1.7c.247.067.692.147 1.19.147.394 0 .92-.048 1.32-.27z"/><path fill="#FFCE00" d="M50.582 42.387c-.608-.195-.982-.275-1.001-.768.205-.499.473-1.18-.176-1.885.473.112 1.366.116 1.789-.233.035-.029.05-.064.076-.1.186-.22.218-.54-.067-1.023-.032-.09-.797-.18-1.328.65-.531-.836-1.062-.756-1.945.057-.493-.365-.1-.755-1.328-.826-.973.295-.618 2.093 2.006 1.501.058 0-1.034.678-.266 1.709-.09.608-.499 1.014-1.12.944.5-.474.532-1.856-.825-1.267-1.59 2.24 2.182 1.708 2.182 1.708.048.973-.73.65-1.001 1.328.304.256.665.452.912.148 0 0 .057.65.499.912.531-.237.237-1.063.237-1.063.499.195.825.157 1.033-.115-.157-.5-.493-.62-.973-.707-.01-.157-.019-.317-.032-.474 5.898.455.032-4.077 1.328-.496zM51.94 32.483c.089-1.072-1.918-1.376-1.182.032-.064.048-.179.074-.256.115-.115.064-.24.122-.377.173-.103.042-.202.09-.31.119-.849.208-1.87.108-2.545-.388-.16-.115-.352-.201-.46-.374 1.13-1.1-1.248-1.229-1.476-.205-.252 2.167 6.362 2.423 6.605.528zM38.144 8.758c-.243-.214-.698-.348-1.203-.348-.599 0-1.133.192-1.354.486l-.099.128-.115-.118c-.01-.01-.944-.964-1.383-1.332a.742.742 0 00-.192.15c.093.09.192.177.292.263.339.295.726.627.94 1.274l.026.07-.045.061c-.384.512-.624 1.571-.349 2.39.73 1.213 2.621 1.376 4.141 1.508.707.06 1.344.115 1.795.268-.204-.422-.448-.94-.694-1.481-.627-1.335-1.318-2.848-1.76-3.319zM35.373 52.608c-.26.288-.397.867-.34 1.462.049.5.225.91.474 1.098l.131.102-.118.112c-.01.01-.966.941-1.334 1.383.041.08.102.147.15.192.09-.09.173-.192.26-.288.294-.343.626-.73 1.276-.947l.067-.026.061.045c.57.422 1.664.595 2.39.349 1.216-.73 1.376-2.621 1.504-4.141.064-.707.116-1.344.27-1.795-.423.204-.942.444-1.476.694-1.328.62-2.842 1.315-3.315 1.76z"/><path fill="#FFCE00" d="M50.691 34.125c-.115-.119-.288-.131-.41-.131-.166 0-.367.032-.601.067-.307.048-.653.105-1.043.105h-.003a6.802 6.802 0 01-1.12-.124c-.612-.11-1.053-.128-1.252.128a.211.211 0 00-.038.086.432.432 0 00.115.349c.371.422 1.587.473 2.096.477h.051c.368 0 2.215-.032 2.317-.647a.46.46 0 00-.112-.31zM49.206 35.242c-.262.038-.534.083-.787.09h-.054c-.282 0-.586-.055-.855-.103-.24-.042-.464-.083-.652-.083-.096 0-.388 0-.528.243a.156.156 0 00-.026.096c.022.56 1.03.665 2.112.704.064.003.122.003.189.003.758 0 1.728-.14 1.958-.54a.16.16 0 00.016-.148c-.118-.342-.512-.342-.643-.342a4.256 4.256 0 00-.73.08zM49.398 36.262c-.323.055-.659.11-.947.116h-.083c-.275 0-.573-.039-.826-.07a4.236 4.236 0 00-.53-.052c-.36 0-.417.186-.414.253a.347.347 0 00.07.294c.24.307 1.086.451 1.764.455h.013c.614 0 2.17-.244 2.176-.852-.032-.16-.173-.24-.423-.24-.198 0-.49.048-.8.096z"/><path fill="#FFCE00" d="M48.131 38.182c.186 0 .371-.006.554-.022.656-.048 1.933-.278 2.054-.806a.159.159 0 000-.068v-.006a.24.24 0 00-.099-.134c-.048-.039-.115-.068-.234-.068-.163 0-.4.048-.697.106-.343.064-.73.14-1.088.16-.115.006-.24.006-.365.006-.34.004-.685-.016-.966-.016-.43 0-.618.039-.717.144-.048.052-.07.116-.064.212.09.406.931.492 1.622.492z"/><path fill="#CCC" d="M32 1.6c16.64 0 30.4 13.76 30.4 30.4S48.64 62.4 32 62.4 1.6 48.64 1.6 32 15.36 1.6 32 1.6zM32 0C14.4 0 0 14.4 0 32s14.4 32 32 32 32-14.4 32-32S49.6 0 32 0z"/></svg>